<svg width="150" height="40" viewBox="0 0 150 40" fill="none" xmlns="http://www.w3.org/2000/svg">
<path d="M12.9 33.3H6.6V13.3L0 16.6V11.2L12.3 6.7H12.9V33.3Z" fill="white"/>
<path d="M33.7 33.3H20.2V27.9H25.3V6.7H33.7V33.3Z" fill="white"/>
<path d="M51.8 33.3H38.3V27.9H43.4V17.8H38.3V12.4H51.8V6.7H32.6V33.3H51.8V27.9V17.8H43.4V22.5H51.8V33.3Z" fill="white"/>
<path d="M72.2 34C66.5 34 62.4 30.6 62.4 25.1V6.7H70.8V24.8C70.8 26.9 71.6 28.6 73.8 28.6C76 28.6 76.8 26.9 76.8 24.8V6.7H85.2V25.1C85.2 30.6 81.1 34 75.4 34H72.2Z" fill="white"/>
<path d="M106.3 33.3H98.2L91.6 20.8V33.3H83.2V6.7H91.6V18.9L98.2 6.7H106.3L97.5 19.9L106.3 33.3Z" fill="white"/>
</svg>
